<svg width="15" height="15" viewBox="0 0 15 15" fill="none" xmlns="http://www.w3.org/2000/svg">
<path fill-rule="evenodd" clip-rule="evenodd" d="M10.9091 6.13636C10.9091 8.77227 8.77227 10.9091 6.13636 10.9091C3.50045 10.9091 1.36364 8.77227 1.36364 6.13636C1.36364 3.50045 3.50045 1.36364 6.13636 1.36364C8.77227 1.36364 10.9091 3.50045 10.9091 6.13636ZM9.9666 10.9308C8.91683 11.7706 7.58524 12.2727 6.13636 12.2727C2.74735 12.2727 0 9.52538 0 6.13636C0 2.74735 2.74735 0 6.13636 0C9.52538 0 12.2727 2.74735 12.2727 6.13636C12.2727 7.58524 11.7706 8.91683 10.9308 9.9666L14.8004 13.836C15.0665 14.1023 15.0665 14.534 14.8004 14.8004C14.534 15.0665 14.1023 15.0665 13.836 14.8004L9.9666 10.9308Z" fill="#F3EDE5"/>
</svg>
