<svg width="15" height="13" viewBox="0 0 15 13" fill="none" xmlns="http://www.w3.org/2000/svg">
<path fill-rule="evenodd" clip-rule="evenodd" d="M3.35355 0.853549C3.54882 0.658289 3.54882 0.341709 3.35355 0.146449C3.15829 -0.0488165 2.84171 -0.0488165 2.64645 0.146449L0.646447 2.14645C0.451184 2.34171 0.451184 2.65829 0.646447 2.85355L2.64645 4.85355C2.84171 5.04882 3.15829 5.04882 3.35355 4.85355C3.54882 4.65829 3.54882 4.34171 3.35355 4.14645L2.20711 3H9.5C11.433 3 13 4.567 13 6.5C13 6.77614 13.2239 7 13.5 7C13.7761 7 14 6.77614 14 6.5C14 4.01472 11.9853 2 9.5 2H2.20711L3.35355 0.853549ZM2 6.5C2 6.22386 1.77614 6 1.5 6C1.22386 6 1 6.22386 1 6.5C1 8.98528 3.01472 11 5.5 11H12.7929L11.6464 12.1464C11.4512 12.3417 11.4512 12.6583 11.6464 12.8536C11.8417 13.0488 12.1583 13.0488 12.3536 12.8536L14.3536 10.8536C14.5488 10.6583 14.5488 10.3417 14.3536 10.1464L12.3536 8.14645C12.1583 7.95118 11.8417 7.95118 11.6464 8.14645C11.4512 8.34171 11.4512 8.65829 11.6464 8.85355L12.7929 10H5.5C3.567 10 2 8.433 2 6.5Z" fill="#F3EDE5"/>
</svg>
