<svg width="112" height="42" viewBox="0 0 112 42" fill="none" xmlns="http://www.w3.org/2000/svg">
<path d="M66.6477 0.629608C66.4636 1.02275 65.1749 4.10738 63.8247 7.52467C62.4439 10.942 61.1245 14.1173 60.879 14.6012C60.6335 15.0851 60.4494 15.5992 60.4494 15.7201C60.4494 15.8713 60.1118 16.6879 59.7129 17.5649C59.0992 18.8955 56.7365 24.6111 53.9749 31.476L53.3918 32.9275H57.8105H62.2291L62.4132 32.2017C62.5973 31.4155 63.4565 30.6594 65.6965 29.2986L67.108 28.4518L67.3228 25.5184C67.4455 23.9156 67.4762 22.5245 67.4149 22.464C67.3535 22.3733 65.6351 22.7664 63.6406 23.2805C61.6154 23.7946 59.5288 24.3087 59.0072 24.3692C58.0866 24.5204 57.9946 24.4599 57.9946 23.7341C57.9946 22.6757 58.3935 22.343 63.7327 18.8652L68.3968 15.8411L68.6116 14.1778C69.1946 9.09723 71.3425 6.16381 72.4472 8.94602C72.662 9.49037 72.7234 11.0327 72.6313 13.1194L72.4472 16.4459L76.5897 20.5285C80.1491 24.0668 80.7014 24.7321 80.7014 25.5789C80.7014 26.093 80.5787 26.6071 80.456 26.6978C80.3025 26.7885 78.2773 25.9115 75.9146 24.7926C73.5825 23.6434 71.6187 22.7362 71.588 22.7664C71.5573 22.7966 71.3118 24.1273 71.005 25.7301L70.4834 28.6332L72.0176 30.1151C72.8768 30.9316 73.6746 31.8993 73.7666 32.2622L73.9814 32.9275H83.8006H93.5891V21.4358V9.94399H90.674H87.759L87.6976 20.8007L87.6056 31.6876L84.4143 23.7644C82.6653 19.4096 80.9776 15.2967 80.7014 14.6314C80.3946 13.9661 79.9343 12.8169 79.6275 12.0609C79.3513 11.3049 78.9217 10.2767 78.7069 9.79279C78.4921 9.27868 78.1546 8.46216 77.9398 7.9783C77.725 7.46419 76.9272 5.49849 76.1294 3.59328L74.7179 0.115505L70.8516 0.0247803C67.108 -0.0357056 66.9853 -0.0357056 66.6477 0.629608Z" fill="#F3EDE5"/>
<path d="M89.1398 1.23442C88.0045 1.83925 87.4521 2.77674 87.4521 4.19809C87.4521 6.19403 88.4034 7.25249 90.3979 7.43393C91.7174 7.5549 92.0549 7.49442 92.8834 6.79886C94.5404 5.43799 94.479 3.16988 92.7913 1.62756C91.9015 0.811043 90.2445 0.629594 89.1398 1.23442Z" fill="#F3EDE5"/>
<path d="M0 17.5044V32.9275H3.37534H6.75069V26.5768V20.2261H12.7342H18.7178V17.3532V14.4802H12.7342H6.75069V11.1537V7.82709H13.1945H19.6384V4.95415V2.0812H9.81918H0V17.5044Z" fill="#F3EDE5"/>
<path d="M22.5841 3.92593C22.4921 4.95415 22.4 11.9097 22.4 19.3491V32.9275H25.4685H28.537V17.5044V2.0812H25.6526H22.7989L22.5841 3.92593Z" fill="#F3EDE5"/>
<path d="M33.5386 9.88351C31.9737 9.91375 30.6849 10.0045 30.6849 10.065C30.6849 10.1254 31.0838 11.1234 31.5748 12.2424C32.0658 13.3915 33.1704 16.0225 34.0603 18.1092C35.9321 22.5547 36.2389 23.2503 37.0367 25.0648C37.3743 25.8208 38.1721 27.7562 38.8164 29.359L39.9825 32.2925L38.663 35.4074C37.9573 37.1311 37.0367 39.248 36.6378 40.125C36.2389 41.002 35.9014 41.7883 35.9014 41.8488C35.9014 41.9395 37.3436 42 39.0926 42C41.3633 42 42.3145 41.879 42.4373 41.6069C44.4932 36.4658 52.3178 17.4136 52.8701 16.2342C53.2691 15.3572 53.9134 13.8149 54.3123 12.8169C54.7112 11.819 55.1408 10.8815 55.2943 10.7C55.8773 10.065 55.3863 9.944 52.3485 9.944H49.1266L46.3956 16.8088C44.8921 20.6192 43.5419 24.0365 43.4192 24.4297L43.2044 25.1555L42.8055 24.2785C42.5907 23.7946 41.2099 20.3773 39.7063 16.6879C38.2334 12.9984 36.8833 9.944 36.6992 9.88351C36.5151 9.82303 35.0729 9.82303 33.5386 9.88351Z" fill="#F3EDE5"/>
<path d="M99.8181 9.88351L97.2712 9.97423V21.4358V32.9275H100.34H103.408V26.093C103.408 19.6213 103.439 19.1979 104.083 18.079C104.452 17.4439 105.311 16.5366 105.986 16.083C107.09 15.3572 107.551 15.2665 109.637 15.2363H112V12.454V9.64158H110.098C107.765 9.64158 106.17 10.3069 104.574 11.8794L103.408 13.0286V11.5166C103.408 9.7323 103.439 9.76254 99.8181 9.88351Z" fill="#F3EDE5"/>
<path d="M67.0465 32.7763C66.1567 33.1695 66.1874 33.1695 68.0898 33.1997C69.9002 33.23 70.023 33.1997 69.4707 32.7763C68.7342 32.232 68.2126 32.232 67.0465 32.7763Z" fill="#F3EDE5"/>
</svg>
